<?xml version="1.0" standalone="no"?>
<!DOCTYPE svg PUBLIC "-//W3C//DTD SVG 20010904//EN"
 "http://www.w3.org/TR/2001/REC-SVG-20010904/DTD/svg10.dtd">
<svg version="1.0" xmlns="http://www.w3.org/2000/svg"
 width="626.000000pt" height="381.000000pt" viewBox="0 0 626.000000 381.000000"
 preserveAspectRatio="xMidYMid meet">

<g transform="translate(0.000000,381.000000) scale(0.100000,-0.100000)"
fill="#000000" stroke="none">
<path d="M317 3750 c-97 -65 -147 -104 -249 -194 l-68 -59 1 -696 c1 -424 5
-657 10 -595 47 611 321 1154 717 1423 78 52 189 108 297 147 l90 33 -355 0
-355 1 -88 -60z"/>
<path d="M2030 3786 c302 -107 531 -301 698 -593 56 -97 138 -282 168 -375
l18 -58 53 0 c48 0 53 2 53 23 0 12 -18 238 -40 502 -22 264 -40 490 -40 503
l0 22 -487 -1 -488 0 65 -23z"/>
<path d="M4311 3722 c-142 -141 -241 -309 -293 -500 -31 -114 -31 -371 0 -494
66 -263 252 -498 555 -701 98 -66 737 -439 962 -561 342 -187 510 -328 598
-502 56 -111 77 -269 53 -404 -36 -202 -168 -370 -366 -468 -58 -28 -141 -60
-185 -71 l-80 -20 353 0 352 -1 -2 902 -3 903 -77 55 c-103 73 -285 176 -743
420 -209 111 -407 218 -440 238 -265 157 -422 311 -485 477 -28 73 -38 232
-21 316 43 207 238 406 471 480 l55 18 -308 0 -307 1 -89 -88z"/>
<path d="M5510 3784 c340 -101 602 -338 726 -659 l23 -60 1 373 0 372 -417 -1
-418 0 85 -25z"/>
<path d="M1900 2042 l0 -59 108 -7 c198 -12 328 -68 375 -163 59 -117 66 -236
67 -1010 l0 -613 -80 -40 c-106 -53 -164 -76 -290 -116 l-105 -33 415 0 415
-1 115 58 115 57 5 750 c5 671 8 758 24 829 22 101 50 160 97 207 49 49 113
70 242 76 l107 6 0 58 0 59 -805 0 -805 0 0 -58z"/>
<path d="M4 1055 l1 -789 107 -81 c58 -44 148 -104 200 -132 l93 -53 420 0
420 0 -90 31 c-348 118 -651 377 -848 725 -163 287 -267 637 -297 998 -4 50
-7 -264 -6 -699z"/>
<path d="M4030 585 l0 -585 578 1 577 0 -85 19 c-281 59 -533 208 -686 403
-100 127 -183 336 -239 597 -15 69 -28 131 -31 138 -2 8 -23 12 -59 12 l-55 0
0 -585z"/>
</g>
</svg>
