<?xml version="1.0" encoding="UTF-8"?>
<!DOCTYPE svg PUBLIC "-//W3C//DTD SVG 1.1//EN" "http://www.w3.org/Graphics/SVG/1.1/DTD/svg11.dtd">
<svg xmlns="http://www.w3.org/2000/svg" version="1.1" width="512px" height="512px" style="shape-rendering:geometricPrecision; text-rendering:geometricPrecision; image-rendering:optimizeQuality; fill-rule:evenodd; clip-rule:evenodd" xmlns:xlink="http://www.w3.org/1999/xlink">
<g><path style="opacity:0.979" fill="#161414" d="M 233.5,-0.5 C 248.167,-0.5 262.833,-0.5 277.5,-0.5C 373.926,11.1207 444.093,60.1207 488,146.5C 500.701,174.312 508.534,203.312 511.5,233.5C 511.5,248.5 511.5,263.5 511.5,278.5C 500.975,365.815 458.308,432.315 383.5,478C 371.296,484.77 358.629,490.437 345.5,495C 316.19,498.672 297.023,486.506 288,458.5C 287.333,432.167 287.333,405.833 288,379.5C 290.571,368.261 296.405,359.094 305.5,352C 316.047,346.814 326.713,341.814 337.5,337C 357.538,326.426 371.705,310.593 380,289.5C 383.829,269.634 384.496,249.634 382,229.5C 379.482,218.465 374.815,208.465 368,199.5C 367.667,187.167 367.333,174.833 367,162.5C 367.223,151.397 361.89,145.397 351,144.5C 346.99,144.503 343.156,145.336 339.5,147C 329.833,152.5 320.167,158 310.5,163.5C 303.008,161.291 295.341,160.125 287.5,160C 266.167,159.333 244.833,159.333 223.5,160C 215.659,160.125 207.992,161.291 200.5,163.5C 189.087,156.794 177.42,150.627 165.5,145C 155.496,142.584 148.663,146.084 145,155.5C 143.794,170.132 143.127,184.798 143,199.5C 136.185,208.465 131.518,218.465 129,229.5C 126.504,249.634 127.171,269.634 131,289.5C 134.626,300.276 140.459,309.609 148.5,317.5C 153.87,322.872 159.537,327.872 165.5,332.5C 172.421,343.89 170.088,352.724 158.5,359C 153.743,359.81 149.076,359.476 144.5,358C 100.859,324.77 84.6926,280.936 96,226.5C 98.2462,212.426 103.246,199.426 111,187.5C 111.333,168.167 111.667,148.833 112,129.5C 115.472,112.186 125.972,103.519 143.5,103.5C 152.27,103.354 160.603,105.187 168.5,109C 179.663,115.081 190.663,121.414 201.5,128C 237.5,127.333 273.5,127.333 309.5,128C 320.337,121.414 331.337,115.081 342.5,109C 355.488,103.057 368.822,102.057 382.5,106C 391.469,111.317 396.969,119.15 399,129.5C 399.333,148.833 399.667,168.167 400,187.5C 407.754,199.426 412.754,212.426 415,226.5C 426.474,284.163 408.308,329.33 360.5,362C 349.898,368.134 338.898,373.468 327.5,378C 322.577,381.058 320.077,385.558 320,391.5C 319.333,410.167 319.333,428.833 320,447.5C 321.53,457.705 327.364,462.872 337.5,463C 416.458,429.024 462.958,369.524 477,284.5C 485.279,196.587 454.446,126.087 384.5,73C 320.057,29.9858 251.057,20.9858 177.5,46C 101.454,77.384 54.2869,133.217 36,213.5C 22.2579,305.798 52.0912,380.298 125.5,437C 142.963,449.316 161.796,459.149 182,466.5C 189.996,464.174 192.329,459.174 189,451.5C 188.097,450.299 186.931,449.465 185.5,449C 164.04,448.525 147.54,439.358 136,421.5C 130.333,410.833 124.667,400.167 119,389.5C 117.5,388 116,386.5 114.5,385C 99.7058,383.879 93.5391,376.046 96,361.5C 100.049,353.142 106.715,349.809 116,351.5C 121.926,350.871 127.426,352.037 132.5,355C 136.752,358.581 140.252,362.748 143,367.5C 148.08,377.327 153.413,386.994 159,396.5C 164.073,404.244 170.906,409.744 179.5,413C 187.5,414.333 195.5,415.667 203.5,417C 213.839,421.18 220.339,428.68 223,439.5C 223.667,454.167 223.667,468.833 223,483.5C 216.953,499.445 205.453,505.945 188.5,503C 123.882,484.298 73.3823,446.798 37,390.5C 16.178,355.867 3.67804,318.534 -0.5,278.5C -0.5,263.5 -0.5,248.5 -0.5,233.5C 8.60893,152.613 46.2756,88.7801 112.5,42C 149.423,17.9708 189.757,3.80413 233.5,-0.5 Z"/></g>
<g><path style="opacity:0.952" fill="#171515" d="M 201.5,351.5 C 220.778,350.61 227.278,359.276 221,377.5C 214.055,384.069 206.222,385.236 197.5,381C 190.931,374.055 189.764,366.222 194,357.5C 196.114,354.879 198.614,352.879 201.5,351.5 Z"/></g>
</svg>
