<?xml version="1.0" standalone="no"?>
<!DOCTYPE svg PUBLIC "-//W3C//DTD SVG 20010904//EN"
 "http://www.w3.org/TR/2001/REC-SVG-20010904/DTD/svg10.dtd">
<svg version="1.0" xmlns="http://www.w3.org/2000/svg"
 width="626.000000pt" height="381.000000pt" viewBox="0 0 626.000000 381.000000"
 preserveAspectRatio="xMidYMid meet">

<g transform="translate(0.000000,381.000000) scale(0.100000,-0.100000)"
fill="#000000" stroke="none">
<path d="M1740 3429 c-358 -41 -649 -179 -891 -421 -197 -198 -339 -422 -428
-680 -214 -623 -64 -1268 396 -1698 188 -175 392 -284 668 -355 196 -50 290
-60 555 -60 310 1 491 29 735 115 93 33 273 112 313 138 l22 14 0 487 c0 516
8 669 41 755 37 100 93 135 227 144 l82 5 0 43 0 44 -600 0 -600 0 0 -44 0
-43 88 -6 c114 -8 179 -29 229 -72 86 -73 93 -133 93 -766 l0 -499 -67 -34
c-341 -170 -727 -179 -1038 -23 -208 103 -410 315 -528 552 -135 272 -193 559
-184 905 10 370 86 629 264 898 204 308 540 469 938 449 456 -23 768 -263 934
-722 l29 -80 41 -3 c23 -2 41 0 41 5 0 4 -18 222 -40 483 -22 261 -40 476 -40
478 0 2 -19 2 -42 0 l-43 -3 -6 -50 c-9 -68 -23 -98 -56 -125 -39 -30 -71 -24
-291 54 -209 76 -303 101 -422 116 -98 12 -312 11 -420 -1z"/>
<path d="M4565 3429 c-344 -50 -636 -300 -722 -619 -24 -88 -24 -290 0 -380
50 -190 188 -364 404 -511 80 -54 525 -316 739 -434 220 -122 314 -194 390
-301 53 -73 72 -124 85 -224 24 -177 -56 -350 -209 -454 -301 -204 -800 -128
-1075 164 -103 108 -188 307 -227 527 l-13 73 -44 0 -43 0 0 -530 0 -530 45 0
c36 0 45 3 45 18 0 70 51 146 104 156 41 8 258 -46 391 -97 169 -64 210 -71
425 -72 255 0 355 21 540 116 174 90 301 216 384 382 68 135 81 195 81 367 0
124 -4 156 -24 220 -42 134 -106 237 -216 345 -132 129 -225 188 -710 448
-433 231 -542 303 -625 409 -117 147 -137 302 -62 463 55 116 162 207 310 263
59 23 82 26 192 26 136 0 202 -13 324 -65 101 -43 193 -108 279 -198 61 -64
86 -100 126 -183 50 -103 89 -230 112 -365 l12 -73 44 0 43 0 0 535 0 535 -44
0 c-40 0 -44 -3 -51 -27 -13 -57 -47 -114 -77 -129 -17 -9 -49 -16 -72 -16
-42 0 -67 8 -245 77 -216 84 -422 112 -616 84z"/>
</g>
</svg>
